<?xml version="1.0" standalone="no"?>
<!DOCTYPE svg PUBLIC "-//W3C//DTD SVG 20010904//EN"
 "http://www.w3.org/TR/2001/REC-SVG-20010904/DTD/svg10.dtd">
<svg version="1.0" xmlns="http://www.w3.org/2000/svg"
 width="1200.000000pt" height="630.000000pt" viewBox="0 0 1200.000000 630.000000"
 preserveAspectRatio="xMidYMid meet">
<metadata>
Created by potrace 1.16, written by Peter Selinger 2001-2019
</metadata>
<g transform="translate(0.000000,630.000000) scale(0.100000,-0.100000)"
fill="#000000" stroke="none">
<path d="M7795 6281 c-22 -11 -34 -20 -27 -20 19 -1 14 -19 -9 -26 -11 -4 -36
-21 -56 -38 -27 -24 -33 -26 -22 -10 7 12 28 30 46 40 36 19 38 31 1 13 -30
-16 -78 -61 -73 -69 2 -4 -6 -18 -17 -31 l-20 -25 16 28 c9 15 12 27 6 27 -12
0 -42 -58 -36 -69 3 -5 -2 -15 -11 -22 -15 -12 -16 -12 -10 4 4 10 3 16 -2 12
-13 -8 -34 -73 -27 -84 4 -5 2 -12 -3 -16 -6 -3 -16 -34 -22 -68 -7 -34 -14
-56 -16 -50 -3 7 3 40 11 73 20 76 20 85 0 40 -21 -46 -24 -395 -4 -456 7 -21
15 -33 17 -26 7 20 22 14 16 -7 -2 -10 5 -36 17 -57 13 -25 19 -31 16 -16 -4
19 -2 21 10 11 7 -6 11 -15 8 -20 -7 -12 24 -69 38 -69 6 0 4 8 -5 18 -10 10
-17 23 -17 28 0 13 34 -38 37 -55 3 -21 101 -113 116 -108 15 5 50 -28 53 -49
3 -17 33 -43 49 -43 6 0 0 7 -12 16 -13 8 -23 19 -23 24 0 5 11 -1 25 -13 13
-11 22 -25 19 -29 -2 -4 0 -10 6 -14 5 -3 10 -1 10 6 0 7 11 2 25 -11 13 -12
23 -27 22 -33 -1 -5 4 -12 12 -15 10 -3 11 0 5 9 -11 18 133 -100 215 -177 82
-76 98 -84 169 -88 60 -4 105 13 100 38 -2 6 15 28 36 47 22 19 36 28 32 20
-6 -9 -5 -12 5 -9 8 3 13 10 12 15 -1 6 9 21 22 33 15 14 25 18 25 11 0 -11
33 12 104 72 20 18 20 18 -11 1 -18 -10 -33 -21 -33 -25 0 -4 -12 -14 -27 -24
l-28 -17 25 24 c49 47 104 93 96 80 -6 -10 0 -9 22 2 17 9 35 22 39 29 4 7 20
20 35 30 15 9 25 23 23 30 -3 6 14 28 37 47 23 19 39 29 34 22 -13 -21 10 -13
30 10 19 22 19 23 -1 8 -20 -15 -20 -14 -1 8 11 12 22 18 25 13 3 -5 15 3 26
18 19 26 19 26 0 11 -20 -14 -20 -14 -1 7 10 12 23 21 28 20 5 -1 17 9 26 23
l16 25 -24 -20 c-19 -15 -17 -10 9 23 18 23 35 42 38 42 4 0 -2 -10 -13 -21
-19 -22 -19 -22 3 -10 24 12 38 45 27 62 -5 8 -3 9 6 4 9 -6 12 -4 8 6 -3 8 1
24 9 34 13 19 14 18 8 -10 -4 -19 1 -12 14 18 17 42 19 73 20 245 0 200 -3
237 -20 227 -5 -3 -6 1 -3 9 3 8 1 23 -5 33 -6 11 -11 13 -11 5 0 -7 -4 -11
-10 -7 -5 3 -7 12 -4 19 7 18 -23 76 -38 76 -6 0 -3 -9 7 -20 10 -11 16 -22
13 -25 -9 -9 -43 49 -40 67 3 19 -42 53 -57 43 -6 -3 -9 0 -6 8 7 18 -30 51
-49 44 -11 -4 -13 -1 -9 11 6 14 4 15 -9 4 -11 -8 -18 -9 -23 -3 -3 6 -38 20
-76 31 -58 18 -94 21 -197 19 -81 -1 -145 -7 -177 -17 -27 -8 -44 -17 -37 -19
6 -3 12 -9 12 -15 0 -6 -7 -7 -16 -4 -8 3 -13 2 -10 -2 3 -5 -8 -16 -24 -26
-29 -16 -30 -16 -72 11 -24 15 -54 33 -68 40 l-25 13 25 -6 c14 -4 32 -8 40
-11 8 -2 -3 5 -25 16 -35 17 -58 19 -195 17 -85 -2 -166 -6 -180 -10 -21 -5
-22 -5 -5 3 l20 10 -20 0 c-11 0 -38 -8 -60 -18z m324 -257 c19 -8 61 -43 93
-77 l57 -62 62 0 c61 0 62 0 108 51 63 68 100 92 163 104 116 22 220 -33 268
-142 19 -42 24 -71 24 -138 0 -153 -43 -212 -339 -461 -114 -96 -210 -175
-214 -177 -13 -4 -420 338 -478 401 -89 98 -115 215 -78 344 27 92 86 153 169
174 40 10 119 2 165 -17z"/>
<path d="M5550 5329 c-47 -5 -103 -13 -125 -19 -40 -9 -40 -9 10 -5 28 3 93 9
145 15 52 5 145 9 205 8 104 -1 101 -2 -51 -8 -88 -4 -180 -11 -205 -15 -76
-12 -293 -65 -326 -80 -17 -8 -36 -15 -42 -15 -21 0 -233 -102 -315 -151 -23
-14 -34 -15 -53 -6 -13 6 -22 16 -19 24 6 15 -60 46 -82 38 -8 -3 -19 -2 -25
2 -7 4 -14 8 -17 9 -3 0 -16 5 -30 11 -14 6 -32 13 -40 16 -16 5 20 1 60 -8
14 -2 0 4 -30 15 -30 10 -68 19 -85 18 l-30 0 30 -8 c56 -14 -8 -10 -80 5 -38
8 -86 15 -105 15 -57 0 -277 -48 -305 -66 -14 -9 -32 -13 -41 -10 -16 6 -109
-23 -100 -31 2 -2 21 3 41 11 62 26 54 18 -25 -27 -41 -23 -100 -58 -130 -77
-30 -19 -62 -34 -70 -32 -8 1 -26 -7 -40 -19 l-25 -20 35 16 c29 13 31 13 15
1 -11 -9 -24 -19 -30 -23 -5 -5 -17 -7 -25 -6 -8 2 -26 -6 -40 -18 l-25 -20
35 16 35 17 -30 -25 c-16 -14 -34 -23 -40 -21 -15 6 -75 -34 -74 -48 0 -10 2
-10 6 0 3 7 19 19 36 28 l32 15 -34 -28 c-19 -15 -48 -36 -65 -47 l-31 -18 25
21 c14 11 20 21 14 21 -17 0 -47 -37 -39 -49 3 -6 0 -9 -8 -5 -7 2 -25 -5 -38
-16 l-24 -21 30 17 30 18 -25 -25 c-14 -14 -28 -24 -33 -21 -4 2 -23 -6 -42
-18 -31 -19 -39 -30 -37 -51 1 -4 -9 -15 -21 -25 -18 -16 -20 -16 -8 -1 8 10
9 17 3 17 -12 0 -34 -35 -27 -42 3 -3 -5 -13 -17 -24 -12 -10 -18 -13 -13 -5
5 9 3 12 -6 9 -8 -3 -13 -12 -13 -21 1 -9 -10 -26 -24 -39 -15 -13 -20 -15
-13 -5 7 9 9 17 3 17 -9 0 -42 -43 -42 -56 0 -3 8 0 18 7 15 13 16 12 3 -4 -7
-9 -25 -23 -39 -30 -14 -6 -28 -18 -30 -26 -3 -9 0 -11 8 -6 9 6 9 3 1 -13 -6
-12 -17 -19 -25 -16 -17 7 -37 -18 -40 -51 -3 -27 -26 -60 -26 -37 0 7 5 12
11 12 5 0 7 5 3 11 -4 8 -14 -1 -25 -22 -21 -39 -24 -53 -9 -44 6 3 7 -1 4
-10 -4 -9 -13 -14 -22 -10 -13 5 -13 3 -1 -12 12 -15 12 -16 -4 -10 -13 5 -20
0 -28 -20 -5 -14 -7 -34 -4 -43 3 -10 1 -21 -5 -25 -6 -3 -8 -11 -5 -16 4 -5
1 -9 -4 -9 -6 0 -11 7 -11 15 0 8 5 15 10 15 6 0 10 5 10 12 0 9 -5 8 -15 -2
-31 -32 -43 -120 -43 -330 -1 -195 10 -304 31 -317 5 -3 6 4 2 18 -15 47 -15
54 -1 24 8 -16 15 -38 16 -48 0 -10 4 -16 9 -13 4 3 6 -5 4 -17 -5 -30 19 -73
39 -69 9 1 18 -5 22 -13 3 -9 2 -13 -4 -10 -14 9 -12 -1 5 -35 9 -17 20 -30
25 -30 6 0 3 11 -6 25 -23 36 -12 31 15 -6 13 -18 19 -29 12 -25 -6 4 -11 3
-11 -2 0 -15 40 -62 53 -62 6 0 1 9 -11 20 -12 12 -22 24 -22 28 1 4 23 -17
49 -47 27 -30 47 -60 44 -68 -3 -7 8 -20 26 -30 17 -10 31 -23 31 -29 0 -6 11
-17 25 -24 14 -7 25 -17 25 -22 0 -14 61 -47 76 -41 8 3 14 0 14 -6 0 -6 -6
-11 -12 -11 -7 0 2 -9 20 -20 42 -26 56 -26 17 0 -16 11 -26 20 -22 20 8 0 58
-30 67 -40 9 -11 115 -78 143 -91 28 -13 36 -29 15 -29 -15 -1 52 -39 67 -39
6 0 -6 8 -25 19 -19 11 -30 19 -25 19 6 1 28 -10 50 -23 22 -14 58 -34 80 -45
57 -30 121 -71 112 -71 -4 0 -22 7 -38 16 -17 8 -33 14 -35 11 -2 -2 13 -12
35 -21 35 -16 39 -22 45 -64 6 -47 5 -56 -8 -102 -3 -14 -11 -65 -16 -115 l-9
-90 4 85 c2 47 6 114 9 150 4 48 2 40 -9 -30 -24 -161 -28 -296 -15 -415 13
-117 32 -190 26 -100 -2 28 -2 41 1 30 2 -11 8 -29 13 -40 16 -38 20 -56 10
-50 -14 8 -12 -10 5 -74 14 -54 40 -98 28 -50 l-5 24 16 -22 c9 -12 14 -28 11
-35 -3 -8 1 -31 10 -51 11 -27 19 -35 32 -30 11 5 14 3 9 -6 -9 -14 23 -81 38
-81 6 0 5 5 -2 12 -7 7 -12 17 -12 23 0 12 49 -46 50 -59 0 -6 -7 -1 -15 10
-17 22 -20 12 -4 -17 5 -11 14 -17 19 -14 6 3 7 -1 4 -9 -4 -11 0 -16 14 -16
11 0 34 -16 51 -35 33 -38 39 -51 19 -39 -7 4 -4 -2 6 -14 21 -24 41 -30 31
-9 -4 6 -1 5 7 -3 7 -8 39 -35 71 -59 31 -24 57 -47 57 -52 0 -5 3 -8 8 -7 4
1 25 -8 47 -20 46 -24 40 -30 -6 -6 -17 8 -33 14 -35 11 -6 -5 69 -39 82 -36
13 3 114 -44 114 -53 0 -4 -6 -8 -12 -8 -9 0 -10 -3 -2 -8 8 -5 9 -43 2 -132
-5 -69 -6 -160 -3 -203 4 -49 3 -77 -4 -77 -5 0 -12 21 -14 48 l-3 47 -2 -47
-2 -48 -190 0 c-144 0 -199 -4 -225 -14 -19 -8 -35 -18 -35 -21 0 -3 9 -1 19
5 11 5 26 10 33 10 7 -1 0 -8 -17 -18 -29 -16 -35 -18 -53 -21 -5 0 -15 -13
-23 -28 -20 -41 -26 -561 -7 -618 10 -30 18 -39 32 -37 13 3 17 -1 13 -12 -3
-8 0 -19 7 -25 20 -16 3583 -16 3603 1 8 6 11 18 8 26 -3 10 0 12 10 8 30 -11
35 31 35 333 0 290 -6 361 -32 345 -4 -3 -1 -12 7 -20 13 -13 15 -60 13 -322
l-3 -307 -2 306 c-3 251 -6 309 -18 319 -7 6 -11 18 -8 26 3 8 2 14 -3 12 -5
-1 -20 4 -34 12 -19 11 -77 16 -240 20 l-215 6 203 2 c162 2 210 -1 239 -13
47 -20 54 -13 9 9 -28 13 -69 16 -224 16 l-191 0 -4 28 -4 27 -2 -27 c0 -16
-4 -28 -8 -28 -5 0 -8 62 -9 138 0 75 -3 160 -7 188 l-7 51 42 13 c24 7 38 15
31 17 -6 2 -30 -5 -52 -16 -23 -10 -41 -15 -41 -11 0 5 10 12 22 16 12 3 37
13 57 22 20 9 42 15 48 13 7 -1 29 7 50 18 21 11 32 20 26 21 -21 0 -15 18 8
25 11 4 51 33 87 64 37 31 74 61 82 65 8 4 4 -2 -10 -13 -14 -11 -20 -21 -14
-21 12 0 54 42 54 54 0 4 -6 4 -12 0 -7 -4 2 9 21 29 19 20 37 34 41 32 11 -7
27 9 45 45 18 34 18 35 -1 20 -12 -9 -10 -3 6 15 14 17 27 32 29 35 2 3 1 -3
-2 -12 -10 -29 1 -21 18 13 9 17 14 38 11 46 -4 11 -2 13 9 9 18 -6 46 51 50
102 1 18 7 38 13 44 8 8 10 4 6 -13 -2 -13 5 1 16 31 14 36 20 68 16 94 -2 22
0 48 5 57 5 10 13 68 19 129 10 119 -3 358 -21 392 -6 11 -7 47 -3 87 6 67 7
68 48 90 133 71 167 92 113 72 -39 -15 -71 -32 -77 -42 -8 -12 -83 -42 -75
-30 3 6 12 11 20 11 7 0 20 6 27 14 21 20 121 70 135 68 24 -5 73 27 67 43 -4
11 -2 13 9 9 15 -5 92 28 99 43 1 5 17 15 33 24 17 8 29 22 28 30 -3 14 65 65
80 61 13 -4 77 38 77 51 0 6 -10 1 -22 -10 -13 -11 -30 -24 -38 -28 -8 -4 5
10 29 31 24 21 51 43 60 47 9 5 5 -1 -9 -12 -14 -11 -20 -21 -14 -21 16 0 47
37 40 48 -3 5 9 19 27 31 l32 22 -28 -25 c-15 -14 -23 -26 -17 -26 14 0 73 59
95 96 l18 29 -26 -30 c-14 -16 -27 -28 -29 -25 -3 3 16 25 40 50 25 25 37 35
27 23 -10 -13 -13 -23 -7 -23 11 0 42 38 42 53 0 4 -5 5 -12 1 -7 -4 -2 7 11
24 26 38 41 43 17 7 -9 -14 -12 -25 -6 -25 5 0 16 13 25 30 17 34 19 44 5 35
-5 -3 -7 0 -4 9 3 8 12 12 20 9 17 -6 58 80 51 108 -3 10 -1 19 4 19 5 0 9 -6
10 -12 2 -38 32 68 36 127 2 39 6 112 9 163 3 51 2 100 -2 110 -4 9 -9 49 -10
87 -1 41 -8 84 -18 105 l-17 35 6 -35 c5 -33 4 -33 -7 -10 -6 14 -10 31 -9 39
3 18 -28 103 -43 116 -6 6 -19 27 -28 48 -10 20 -22 37 -28 37 -6 0 -3 -12 6
-27 l16 -28 -20 25 c-11 13 -18 28 -16 32 7 11 -25 68 -38 68 -6 0 -4 -8 5
-18 10 -10 17 -22 17 -27 0 -4 -13 9 -30 30 -16 21 -30 41 -30 44 0 3 7 -3 15
-13 20 -27 19 -6 -1 22 -9 13 -21 21 -28 19 -6 -3 -20 7 -30 22 l-20 26 24
-20 23 -20 -18 27 c-9 15 -21 26 -25 23 -7 -4 -38 24 -39 35 0 15 -14 40 -23
40 -5 0 -6 -6 -2 -12 5 -9 3 -9 -9 1 -9 7 -15 17 -12 21 2 3 -14 24 -37 46
-28 27 -39 33 -34 19 5 -15 4 -17 -4 -9 -6 6 -12 19 -14 28 -2 17 -34 45 -51
46 -5 0 4 -9 20 -20 17 -11 26 -20 22 -20 -18 0 -58 34 -53 46 5 13 -29 44
-49 44 -5 0 4 -9 20 -20 17 -11 26 -20 22 -20 -18 0 -55 33 -51 45 6 14 -37
48 -53 43 -4 -2 -33 15 -63 37 -60 44 -69 50 -179 125 -41 27 -72 50 -68 50
14 0 77 -34 77 -42 0 -4 18 -17 41 -29 23 -11 38 -16 35 -11 -3 5 -19 15 -36
22 -16 7 -30 16 -30 21 0 13 -80 51 -96 45 -8 -3 -14 -2 -14 3 0 5 -14 14 -30
21 -17 7 -29 15 -26 17 2 2 18 -3 36 -12 18 -9 34 -15 36 -12 6 5 -70 39 -82
36 -8 -2 -72 24 -139 56 -61 30 -218 60 -315 60 -94 0 -225 -24 -285 -51 -61
-27 -138 -55 -142 -50 -2 2 12 9 32 16 20 7 34 14 31 18 -3 3 -24 -3 -46 -13
-29 -13 -37 -21 -28 -27 17 -10 -8 -28 -37 -27 -17 1 -16 2 5 10 24 8 24 8 -5
7 -16 -1 -48 8 -70 21 -22 12 -32 20 -22 17 9 -3 25 -9 35 -12 9 -3 4 2 -11
11 -16 9 -35 14 -43 11 -10 -4 -14 0 -12 11 4 21 -85 57 -119 48 -13 -3 -23
-2 -23 3 0 5 -19 14 -42 21 -24 7 -56 19 -73 26 -16 8 -55 21 -85 30 -30 8
-40 13 -22 10 17 -3 47 -7 65 -10 l32 -5 -30 11 c-16 6 -65 12 -108 14 -44 2
-91 8 -106 14 -14 6 -69 16 -121 21 l-95 9 90 -4 c50 -3 115 -7 145 -9 40 -4
34 -2 -25 9 -102 18 -444 27 -555 14z m440 -280 c135 -19 347 -76 397 -107 10
-6 8 -23 -7 -71 -73 -241 -271 -409 -518 -442 -261 -34 -516 102 -635 337 -29
58 -60 166 -49 175 4 4 50 21 102 39 229 77 480 101 710 69z m-1489 -145 c102
-30 102 -24 -8 -137 -154 -159 -252 -299 -344 -492 -92 -195 -138 -362 -178
-660 -11 -82 -27 -195 -35 -250 -8 -55 -24 -171 -37 -257 -12 -87 -26 -158
-31 -158 -14 0 -276 159 -358 218 -223 159 -368 345 -400 512 -24 127 -8 224
60 365 114 236 385 497 772 743 114 72 186 106 260 121 29 6 62 13 73 15 36 8
171 -4 226 -20z m2901 -5 c93 -31 167 -72 322 -176 328 -222 569 -462 672
-669 129 -260 84 -490 -141 -719 -110 -111 -233 -200 -454 -329 l-109 -63 -7
41 c-3 22 -17 118 -30 211 -25 183 -32 208 -64 242 -44 46 -129 43 -173 -7
-24 -26 -28 -39 -28 -91 0 -33 9 -120 20 -192 21 -145 60 -418 91 -652 26
-188 27 -343 4 -454 -82 -399 -424 -675 -835 -674 -127 1 -209 15 -315 55
-143 54 -312 185 -395 304 l-28 40 48 47 c46 44 111 148 216 342 49 90 49 90
49 185 0 87 -3 101 -33 162 -36 74 -98 133 -178 170 -46 22 -62 23 -249 23
-196 0 -201 0 -258 -27 -80 -38 -158 -118 -186 -193 -28 -74 -31 -190 -6 -250
37 -87 202 -362 243 -403 23 -23 42 -47 42 -53 0 -19 -170 -178 -244 -227
-147 -98 -327 -148 -501 -139 -421 24 -754 311 -824 711 -21 116 -20 130 73
796 25 179 32 227 92 650 36 250 65 385 111 500 75 192 188 370 325 515 98
104 274 244 287 229 5 -5 18 -36 31 -69 95 -262 312 -453 605 -537 119 -34
305 -32 431 5 104 30 167 58 245 107 162 102 290 261 349 433 13 37 26 67 29
67 13 0 94 -60 177 -131 144 -122 252 -257 355 -443 64 -117 98 -143 169 -131
53 9 100 61 100 112 0 99 -223 431 -403 601 l-56 52 32 16 c87 46 284 52 399
13z m-1435 -2484 c32 -32 35 -40 31 -78 -3 -26 -22 -71 -50 -117 -25 -41 -60
-102 -78 -135 -37 -67 -68 -105 -85 -105 -20 0 -51 42 -134 186 -62 107 -81
149 -81 178 0 89 32 105 219 106 l143 0 35 -35z m-115 -951 c46 -48 111 -107
146 -131 34 -25 62 -48 62 -52 0 -10 -48 -53 -83 -75 -85 -52 -228 -64 -329
-26 -57 21 -158 101 -158 124 0 7 21 25 47 42 26 16 88 68 138 116 49 48 91
87 92 88 2 0 40 -39 85 -86z m-572 -305 c41 -67 142 -155 224 -194 277 -133
612 -53 779 185 l16 23 78 -21 c103 -27 172 -35 323 -36 l125 -1 15 -167 c9
-93 12 -168 8 -168 -4 0 -486 0 -1070 0 l-1063 0 4 62 c2 35 8 119 15 188 l11
125 110 -3 c104 -3 267 15 340 37 50 15 59 12 85 -30z m2080 -769 l0 -130
-1575 0 -1575 0 0 130 0 130 1575 0 1575 0 0 -130z"/>
<path d="M7379 3895 c-36 -20 -63 -78 -55 -124 8 -52 63 -101 113 -101 67 0
133 60 133 120 0 36 -31 90 -61 105 -35 19 -96 19 -130 0z"/>
<path d="M4827 3543 c-186 -62 -294 -339 -226 -583 51 -186 162 -290 309 -290
146 0 254 100 310 288 42 139 15 337 -61 448 -43 63 -112 119 -170 137 -63 21
-100 21 -162 0z m111 -256 c65 -69 70 -255 10 -340 -47 -66 -108 10 -116 145
-5 84 10 143 49 192 25 32 30 32 57 3z"/>
<path d="M6573 3541 c-69 -25 -114 -61 -157 -124 -58 -85 -79 -155 -84 -287
-4 -105 -1 -123 22 -194 58 -171 166 -265 304 -266 151 0 276 126 317 320 19
90 19 150 0 242 -49 235 -229 373 -402 309z m116 -258 c34 -43 54 -128 48
-200 -7 -71 -44 -156 -71 -161 -47 -9 -86 81 -85 197 1 84 13 127 46 165 29
33 36 32 62 -1z"/>
</g>
</svg>
